<svg width="183" height="183" viewBox="0 0 183 183" fill="none" xmlns="http://www.w3.org/2000/svg">
<path d="M76.6508 31.8492C84.8518 23.6482 98.1482 23.6482 106.349 31.8492L151.151 76.6508C159.352 84.8518 159.352 98.1482 151.151 106.349L106.349 151.151C98.1482 159.352 84.8518 159.352 76.6508 151.151L31.8492 106.349C23.6482 98.1482 23.6482 84.8518 31.8492 76.6508L76.6508 31.8492Z" stroke="#B3B3B3" stroke-width="19"/>
<path d="M92.666 65.6611L98.3047 85.0469L117.325 90.3301L121.537 91.5L117.325 92.6699L98.3047 97.9521L92.666 117.339L91.5 121.347L90.334 117.339L84.6943 97.9521L65.6748 92.6699L61.4629 91.5L65.6748 90.3301L84.6943 85.0469L90.334 65.6611L91.5 61.6533L92.666 65.6611Z" fill="#B3B3B3" stroke="#B3B3B3" stroke-width="2.42857"/>
</svg>
