<svg width="183" height="183" viewBox="0 0 183 183" fill="none" xmlns="http://www.w3.org/2000/svg">
<path d="M159.614 95.5485L130.322 78.2671C129.639 77.8642 129.229 77.1391 129.229 76.3603V42.7107C129.229 40.3742 127.986 38.199 125.936 37.0039L97.6413 20.3268C95.7832 19.2391 93.6655 18.6617 91.5068 18.6617C89.3481 18.6617 87.2168 19.2391 85.3724 20.3268L57.0774 37.0173C55.0416 38.2258 53.7847 40.3877 53.7847 42.7241V76.4006C53.7847 77.1794 53.3612 77.9045 52.6917 78.3074L23.3857 95.5485C20.6668 97.1463 19 100.047 19 103.162V135.697C19 140.169 21.268 144.304 24.9295 146.48L52.0359 162.673C54.9187 164.392 58.5256 164.392 61.4084 162.673L90.4685 145.459C91.1789 145.043 92.067 145.056 92.7774 145.472L122.753 163.371C124.912 164.661 127.63 164.661 129.789 163.371L158.07 146.48C161.732 144.291 164 140.169 164 135.697V103.162C164 100.047 162.333 97.1598 159.614 95.5485ZM88.3508 135.697C88.3508 138.087 87.1895 140.263 85.3587 141.364L62.556 154.979C60.6842 156.094 58.4436 154.536 58.4436 152.119V125.586C58.4436 123.196 59.6049 121.021 61.4357 119.92L84.2384 106.304C86.1101 105.189 88.3508 106.747 88.3508 109.164V135.697ZM123.135 76.5215C123.135 78.9116 121.974 81.0869 120.143 82.1879L97.3407 95.8036C95.4689 96.9181 93.2283 95.3605 93.2283 92.9435V66.4105C93.2283 64.0203 94.3896 61.8451 96.2204 60.744L119.023 47.1284C120.895 46.0139 123.135 47.5715 123.135 49.9884V76.5215ZM157.907 135.697C157.907 138.087 156.745 140.263 154.914 141.364L132.112 154.979C130.24 156.094 127.999 154.536 127.999 152.119V125.586C127.999 123.196 129.161 121.021 130.991 119.92L153.794 106.304C155.666 105.189 157.907 106.747 157.907 109.164V135.697Z" fill="#B3B3B3"/>
</svg>
