<svg width="183" height="183" viewBox="0 0 183 183" fill="none" xmlns="http://www.w3.org/2000/svg">
<path d="M46.3193 92.0312C66.1037 92.0312 82.1406 108.029 82.1406 127.765C82.1406 147.5 66.1037 163.5 46.3193 163.5C26.5359 163.5 10.5 147.499 10.5 127.765C10.5 108.029 26.5359 92.0313 46.3193 92.0312ZM140.681 92.0283C160.465 92.0283 176.5 108.029 176.5 127.765C176.5 147.5 160.465 163.5 140.681 163.5C120.897 163.5 104.861 147.5 104.861 127.765C104.861 108.029 120.897 92.0284 140.681 92.0283ZM93.5 10.5C113.283 10.5 129.319 26.5022 129.319 46.2344C129.319 65.9704 113.283 81.9717 93.5 81.9717C73.7158 81.9715 57.6809 65.9703 57.6807 46.2344C57.6807 26.5023 73.7156 10.5002 93.5 10.5Z" fill="#B3B3B3" stroke="#B3B3B3"/>
</svg>
